<?xml version="1.0" encoding="UTF-8"?>
<svg xmlns="http://www.w3.org/2000/svg" version="1.1" viewBox="0 0 566.93 566.93">
  <defs>
    <style>
      .cls-1 {
        fill: #918a8d;
      }

      .cls-2 {
        fill: #413e40;
      }
    </style>
  </defs>
  <!-- Generator: Adobe Illustrator 28.7.1, SVG Export Plug-In . SVG Version: 1.2.0 Build 142)  -->
  <g>
    <g id="Layer_1">
      <g>
        <path class="cls-2" d="M264.98,282.12c0,7.85-5.31,13.16-13.27,13.16s-13.22-5.25-13.22-13.44,5.2-13.49,13.6-13.49,12.88,5.09,12.88,13.77ZM243.3,281.79c0,7.35,3.21,11.78,8.46,11.78s8.41-4.48,8.41-11.56c0-7.74-2.93-11.94-8.41-11.94s-8.46,4.42-8.46,11.72Z"/>
        <path class="cls-2" d="M271.29,274.43c.11-.77.17-1.11.17-1.55s-.06-.77-.17-1.55c3.15-2.1,5.75-2.99,8.85-2.99,5.53,0,8.85,3.15,8.85,8.46,0,1-.06,2.21-.11,3.65-.06,2.1-.11,3.54-.11,5.64,0,3.37.06,4.64.28,5.31.28.94.94,1.44,1.88,1.44.33,0,.61-.06,1.16-.11v1.05c-1.49.61-2.49.83-3.65.83-2.21,0-3.43-1.05-3.76-3.26-2.43,2.65-5.14,3.93-8.35,3.93-4.59,0-7.47-2.6-7.47-6.75,0-2.32.88-4.31,2.43-5.42,1.44-1.05,3.04-1.6,6.86-2.21,3.98-.66,5.2-1.05,6.64-1.99v-.11c0-2.99,0-3.15-.44-4.42-.77-2.38-2.99-3.82-5.75-3.82s-5.36,1.38-6.75,3.87h-.55ZM284.22,281.24c-7.02,1.55-7.24,1.6-8.35,2.21-1.71.94-2.54,2.43-2.54,4.53,0,2.93,2.05,4.98,4.98,4.98,2.43,0,4.92-1.49,6.36-3.82,0-1.44,0-1.77.06-2.87v-1.33l.11-3.32v-.5l-.61.11Z"/>
        <path class="cls-2" d="M309.77,273.22c-.88-.61-1.66-.88-2.65-.88-2.27,0-4.37,1.66-5.14,4.09-.39,1.22-.5,3.26-.5,9.07,0,2.99.17,7.19.33,9.07-1.16-.17-1.66-.22-2.32-.22-.61,0-1.16.05-2.38.22.28-2.1.44-7.02.44-13.49,0-4.09,0-4.81-.44-12.33,1.27.17,1.71.22,2.32.22.55,0,1.05-.06,2.1-.22v.61l-.06,2.21c-.05,1.22-.05,1.38-.05,2.88,1.88-3.82,4.59-6.08,7.41-6.08.66,0,1.05.11,1.66.39-.28,1.11-.44,2.27-.44,3.15,0,.22.06.61.11,1.11l-.39.22Z"/>
        <path class="cls-2" d="M333.94,265.7c0-5.14-.11-8.79-.28-11.89,1.33.17,1.88.22,2.54.22.72,0,1.27-.06,2.16-.22-.22,2.38-.22,2.49-.5,13.77l-.05,6.53-.06,6.75c.06,5.47.06,8.85.06,10.06,0,1.99,0,2.1.11,3.65-.77-.17-1.16-.22-1.94-.22-.72,0-1.27.05-2.16.22l.05-1.38.11-2.71v-1.33c-1.99,4.09-5.03,6.03-9.35,6.03-6.69,0-11.12-5.09-11.12-12.77,0-8.57,4.59-14.05,11.83-14.05,4.15,0,7.13,1.83,8.57,5.25-.06-.44-.06-1-.06-1.05,0-.83,0-2.05.06-4.87v-1.99ZM318.34,282.4c0,6.75,2.76,10.73,7.52,10.73s8.02-4.7,8.02-12c0-6.58-2.87-10.67-7.52-10.67-5.2,0-8.02,4.2-8.02,11.94Z"/>
        <path class="cls-1" d="M361.42,257.73l3.76,8.85,3.87,9.12,4.09,9.46c2.32,5.47,2.87,6.69,4.15,9.4-1.16-.17-1.77-.22-2.88-.22s-1.66.05-2.65.22c-1-2.87-4.04-10.67-5.75-14.6h-1l-6.3-.05c-.06,0-5.36.05-6.64.11-1.33,3.21-2.38,5.75-2.82,7.02-.06.06-1.16,3.37-2.6,7.52-.94-.17-1.38-.22-1.88-.22-.55,0-.94.05-2.05.22,1.16-2.27,1.99-4.04,4.31-9.12,1.38-3.15,2.82-6.3,4.26-9.57,1.44-3.04,2.76-5.97,4.15-9.18,1.27-2.82,2.6-5.81,3.93-8.79l.55-1.16h1.11l.39,1ZM358.82,264.59l-2.76,6.14-2.65,6.19-.33.77c2.54.05,3.59.05,6.36.05,2.43,0,3.76,0,5.64-.05l-.28-.77c-.88-2.05-1.77-4.15-2.6-6.19-1-2.32-1.83-4.2-3.04-6.86l-.33.72Z"/>
        <path class="cls-1" d="M388.07,256.74c5.36,10.62,12.22,23.56,15.54,29.25,1.11-1.88,1.71-2.99,3.98-7.13,3.32-6.08,7.41-13.55,12.28-22.12h.72l.11.94c.22,1.83.39,3.59.55,5.42l.77,6.86c1.16,11.34,2.43,21.51,2.99,24.61-1.49-.17-2.05-.22-2.65-.22s-1.16.05-2.6.22c-.06-4.64-1-15.15-2.49-26.87l-.11-1.11c-4.92,8.29-12.05,21.9-14.38,27.43h-.44c-6.25-12.72-6.36-12.94-13.55-26.04l-.5-.88c-1.38,10.17-2.76,24-2.71,27.48-1.22-.17-1.55-.22-1.99-.22-.5,0-.88.05-1.88.22,1.05-5.42,2.27-13.44,3.76-24.83.72-5.64,1.22-9.01,1.38-10.17.11-.83.22-1.83.33-2.82h.88Z"/>
        <g>
          <path class="cls-2" d="M210.81,320.15h-1.01v-9.95h6v.93h-4.99v3.39h4.64v.93h-4.64v4.71Z"/>
          <path class="cls-2" d="M219.67,320.15h-1.01v-9.95h1.01v9.95Z"/>
          <path class="cls-2" d="M224.44,320.15h-1.01v-9.95h3.06c1.01,0,1.81.22,2.4.66s.88,1.11.88,2c0,.69-.22,1.28-.65,1.75-.44.47-1.07.75-1.89.82l2.87,4.72h-1.24l-2.73-4.62h-1.69v4.62ZM224.44,314.6h1.8c.45,0,.83-.05,1.15-.14.31-.09.56-.22.75-.37.19-.15.32-.34.41-.55.08-.21.13-.44.13-.68s-.04-.46-.13-.67c-.08-.21-.22-.4-.41-.56-.19-.16-.44-.28-.75-.37-.31-.09-.7-.13-1.15-.13h-1.8v3.47Z"/>
          <path class="cls-2" d="M237.52,311.84c-.44-.65-1.08-.97-1.93-.97-.26,0-.52.04-.77.11s-.48.18-.68.32c-.2.14-.36.33-.48.56s-.18.5-.18.81c0,.45.13.8.38,1.05.25.25.57.45.94.61.38.16.79.3,1.23.43.44.13.85.3,1.23.51.37.21.69.49.94.84.25.35.38.82.38,1.42,0,.45-.1.85-.29,1.21-.19.36-.44.66-.76.91-.31.24-.66.43-1.05.56s-.78.2-1.17.2c-.61,0-1.19-.11-1.73-.34-.55-.23-1.01-.61-1.4-1.13l.93-.66c.21.37.51.66.9.88s.84.33,1.36.33c.25,0,.5-.04.76-.12.25-.08.48-.2.68-.35.2-.15.37-.34.5-.57.13-.22.2-.48.2-.77,0-.35-.07-.63-.22-.86-.14-.23-.34-.42-.58-.58-.24-.15-.51-.28-.82-.39s-.62-.21-.94-.31c-.32-.1-.64-.22-.94-.35-.3-.13-.58-.3-.82-.5s-.43-.45-.58-.76c-.15-.3-.22-.69-.22-1.15s.09-.9.27-1.25c.18-.36.43-.65.73-.89.3-.23.65-.41,1.03-.52.38-.11.78-.17,1.18-.17.56,0,1.07.09,1.53.27.46.18.89.49,1.28.94l-.89.69Z"/>
          <path class="cls-2" d="M244.87,320.15h-1.01v-9.02h-3.33v-.93h7.67v.93h-3.33v9.02Z"/>
          <path class="cls-2" d="M255.76,310.2h2.89c1.01,0,1.81.22,2.4.66s.88,1.11.88,2-.29,1.56-.88,2c-.59.45-1.38.67-2.4.67h-1.88v4.62h-1.01v-9.95ZM256.78,314.6h1.63c.45,0,.83-.05,1.15-.14.31-.09.56-.22.75-.37.19-.15.32-.34.41-.55.08-.21.13-.44.13-.68s-.04-.46-.13-.67c-.08-.21-.22-.4-.41-.56-.19-.16-.44-.28-.75-.37-.31-.09-.7-.13-1.15-.13h-1.63v3.47Z"/>
          <path class="cls-2" d="M265.9,320.15h-1.01v-9.95h3.06c1.01,0,1.81.22,2.4.66s.88,1.11.88,2c0,.69-.22,1.28-.65,1.75-.44.47-1.07.75-1.89.82l2.87,4.72h-1.24l-2.73-4.62h-1.69v4.62ZM265.9,314.6h1.8c.45,0,.83-.05,1.15-.14.31-.09.56-.22.75-.37.19-.15.32-.34.41-.55.08-.21.13-.44.13-.68s-.04-.46-.13-.67c-.08-.21-.22-.4-.41-.56-.19-.16-.44-.28-.75-.37-.31-.09-.7-.13-1.15-.13h-1.8v3.47Z"/>
          <path class="cls-2" d="M275.28,320.15h-1.01v-9.95h1.01v9.95Z"/>
          <path class="cls-2" d="M286.23,318.63h.03v-8.43h1.01v9.95h-1.26l-5.93-8.52h-.03v8.52h-1.01v-9.95h1.26l5.93,8.43Z"/>
          <path class="cls-2" d="M299.22,318.57c-.17.25-.38.49-.63.72-.25.23-.53.42-.85.58-.32.16-.66.29-1.03.39-.37.09-.76.14-1.17.14-.74,0-1.43-.13-2.06-.39-.63-.26-1.18-.62-1.64-1.09s-.83-1.01-1.09-1.65c-.26-.64-.39-1.34-.39-2.09s.13-1.46.39-2.09c.26-.64.63-1.19,1.09-1.65.46-.46,1.01-.83,1.64-1.09.63-.26,1.32-.39,2.06-.39.62,0,1.24.12,1.85.37.62.24,1.15.65,1.59,1.21l-.89.66c-.1-.16-.24-.32-.42-.48-.18-.16-.38-.3-.61-.42-.23-.12-.48-.22-.74-.3-.26-.07-.53-.11-.79-.11-.64,0-1.21.12-1.71.35s-.93.55-1.29.94c-.35.39-.62.85-.81,1.37-.19.52-.28,1.07-.28,1.64s.09,1.12.28,1.64c.19.52.46.98.81,1.37.35.39.78.71,1.29.94s1.08.35,1.71.35c.26,0,.52-.02.78-.07.26-.05.51-.13.76-.24.25-.11.48-.27.7-.46.22-.19.42-.43.61-.72l.83.59Z"/>
          <path class="cls-2" d="M302.98,320.15h-1.01v-9.95h1.01v9.95Z"/>
          <path class="cls-2" d="M306.74,310.2h2.89c1.01,0,1.81.22,2.4.66s.88,1.11.88,2-.29,1.56-.88,2c-.59.45-1.38.67-2.4.67h-1.88v4.62h-1.01v-9.95ZM307.75,314.6h1.63c.45,0,.83-.05,1.15-.14.31-.09.56-.22.75-.37.19-.15.32-.34.41-.55.08-.21.13-.44.13-.68s-.04-.46-.13-.67c-.08-.21-.22-.4-.41-.56-.19-.16-.44-.28-.75-.37-.31-.09-.7-.13-1.15-.13h-1.63v3.47Z"/>
          <path class="cls-2" d="M316.87,319.22h4.64v.93h-5.65v-9.95h1.01v9.02Z"/>
          <path class="cls-2" d="M324.95,319.22h5.33v.93h-6.34v-9.95h6.17v.93h-5.16v3.39h4.82v.93h-4.82v3.78Z"/>
          <path class="cls-2" d="M338.03,311.84c-.44-.65-1.08-.97-1.93-.97-.26,0-.52.04-.77.11s-.48.18-.68.32c-.2.14-.36.33-.48.56s-.18.5-.18.81c0,.45.13.8.38,1.05.25.25.57.45.94.61.38.16.79.3,1.23.43.44.13.85.3,1.23.51.37.21.69.49.94.84.25.35.38.82.38,1.42,0,.45-.1.85-.29,1.21-.19.36-.44.66-.76.91-.31.24-.66.43-1.05.56s-.78.2-1.17.2c-.61,0-1.19-.11-1.73-.34-.55-.23-1.01-.61-1.4-1.13l.93-.66c.21.37.51.66.9.88s.84.33,1.36.33c.25,0,.5-.04.76-.12.25-.08.48-.2.68-.35.2-.15.37-.34.5-.57.13-.22.2-.48.2-.77,0-.35-.07-.63-.22-.86-.14-.23-.34-.42-.58-.58-.24-.15-.51-.28-.82-.39s-.62-.21-.94-.31c-.32-.1-.64-.22-.94-.35-.3-.13-.58-.3-.82-.5s-.43-.45-.58-.76c-.15-.3-.22-.69-.22-1.15s.09-.9.27-1.25c.18-.36.43-.65.73-.89.3-.23.65-.41,1.03-.52.38-.11.78-.17,1.18-.17.56,0,1.07.09,1.53.27.46.18.89.49,1.28.94l-.89.69Z"/>
          <path class="cls-2" d="M348.16,320.15h-1.01v-9.95h1.01v9.95Z"/>
          <path class="cls-2" d="M359.11,318.63h.03v-8.43h1.01v9.95h-1.26l-5.93-8.52h-.03v8.52h-1.01v-9.95h1.26l5.93,8.43Z"/>
          <path class="cls-2" d="M366.8,318.63h.03l3.26-8.43h1.1l-3.88,9.95h-1.01l-3.78-9.95h1.12l3.16,8.43Z"/>
          <path class="cls-2" d="M374.55,319.22h5.33v.93h-6.34v-9.95h6.17v.93h-5.16v3.39h4.82v.93h-4.82v3.78Z"/>
          <path class="cls-2" d="M387.64,311.84c-.44-.65-1.08-.97-1.93-.97-.26,0-.52.04-.77.11s-.48.18-.68.32c-.2.14-.36.33-.48.56s-.18.5-.18.81c0,.45.13.8.38,1.05.25.25.57.45.94.61.38.16.79.3,1.23.43.44.13.85.3,1.23.51.37.21.69.49.94.84.25.35.38.82.38,1.42,0,.45-.1.85-.29,1.21-.19.36-.44.66-.76.91-.31.24-.66.43-1.05.56s-.78.2-1.17.2c-.61,0-1.19-.11-1.73-.34-.55-.23-1.01-.61-1.4-1.13l.93-.66c.21.37.51.66.9.88s.84.33,1.36.33c.25,0,.5-.04.76-.12.25-.08.48-.2.68-.35.2-.15.37-.34.5-.57.13-.22.2-.48.2-.77,0-.35-.07-.63-.22-.86-.14-.23-.34-.42-.58-.58-.24-.15-.51-.28-.82-.39s-.62-.21-.94-.31c-.32-.1-.64-.22-.94-.35-.3-.13-.58-.3-.82-.5s-.43-.45-.58-.76c-.15-.3-.22-.69-.22-1.15s.09-.9.27-1.25c.18-.36.43-.65.73-.89.3-.23.65-.41,1.03-.52.38-.11.78-.17,1.18-.17.56,0,1.07.09,1.53.27.46.18.89.49,1.28.94l-.89.69Z"/>
          <path class="cls-2" d="M394.99,320.15h-1.01v-9.02h-3.33v-.93h7.67v.93h-3.33v9.02Z"/>
          <path class="cls-2" d="M401.93,320.15h-1.01v-9.95h1.01v9.95Z"/>
          <path class="cls-2" d="M412.88,318.63h.03v-8.43h1.01v9.95h-1.26l-5.93-8.52h-.03v8.52h-1.01v-9.95h1.26l5.93,8.43Z"/>
          <path class="cls-2" d="M425.02,312.02c-.34-.36-.74-.64-1.21-.84-.47-.21-1.01-.31-1.63-.31s-1.21.12-1.71.35-.93.55-1.29.94c-.35.39-.62.85-.81,1.37-.19.52-.28,1.07-.28,1.64s.09,1.12.28,1.64c.19.52.46.98.81,1.37.35.39.78.71,1.29.94s1.08.35,1.71.35c.51,0,1.01-.06,1.48-.19.47-.13.9-.3,1.27-.51v-3.33h-2.37v-.93h3.39v4.88c-.56.33-1.18.58-1.85.75-.67.17-1.31.26-1.92.26-.74,0-1.43-.13-2.06-.39-.63-.26-1.18-.62-1.64-1.09s-.83-1.01-1.09-1.65c-.26-.64-.39-1.34-.39-2.09s.13-1.46.39-2.09c.26-.64.63-1.19,1.09-1.65.46-.46,1.01-.83,1.64-1.09.63-.26,1.32-.39,2.06-.39.8,0,1.48.11,2.06.33.58.22,1.09.56,1.54,1l-.76.74Z"/>
        </g>
        <path class="cls-2" d="M223.67,274.38c2.49-.55,3.71-1.11,5.2-2.1,2.32-1.6,3.71-4.26,3.71-7.08,0-3.48-1.83-6.08-5.09-7.08-2.1-.66-4.37-.88-8.4-.88l-3.48.06c-1.55.06-2.6.11-3.04.11-1.05,0-1.77-.05-3.04-.17.22,2.64.39,10.14.39,16.53h-10.63c-1.39,0-2.68-.73-3.35-1.95-1.07-1.96-3.36-3.15-5.87-2.54-.18.04-.35.1-.51.17l-3.19-4.84c.94-.8,1.55-1.97,1.55-3.3,0-2.4-1.94-4.34-4.34-4.34s-4.34,1.94-4.34,4.34c0,.09.02.18.03.27h-10.5c-.12-.68-.49-1.26-1.02-1.66l4.38-7.01c.55.36,1.2.57,1.9.57,1.92,0,3.48-1.56,3.48-3.48s-1.56-3.48-3.48-3.48-3.48,1.56-3.48,3.48c0,1.01.43,1.9,1.12,2.54l-4.42,7.08c-.32-.14-.67-.22-1.04-.22-.35,0-.68.07-.98.19l-5.64-8.34c.33-.32.54-.76.54-1.26,0-.96-.78-1.74-1.74-1.74s-1.74.78-1.74,1.74.78,1.74,1.74,1.74c.26,0,.5-.06.71-.16l5.61,8.29c-.56.39-.95,1-1.07,1.7h-10.58c-.24-.66-.88-1.14-1.63-1.14-.96,0-1.74.78-1.74,1.74s.78,1.74,1.74,1.74,1.74-.78,1.74-1.74c0,0,0-.01,0-.02h10.44c.08,1.37,1.2,2.46,2.59,2.46.53,0,1.02-.16,1.43-.43l4.79,7.08c-.96.5-1.65,1.43-1.82,2.54h-8.79c-.26-1.67-1.68-2.95-3.42-2.95s-3.17,1.28-3.42,2.95h-10.57c-.22-.7-.87-1.21-1.65-1.21-.96,0-1.74.78-1.74,1.74s.78,1.74,1.74,1.74,1.7-.75,1.73-1.68h10.44c.03,1.89,1.57,3.42,3.47,3.42s3.44-1.53,3.47-3.42h8.7c.02,1.17.61,2.2,1.51,2.82l-5.03,7.7c-.26-.09-.54-.15-.83-.15-1.1,0-2.04.68-2.42,1.65h-10.62c-.05-.92-.8-1.65-1.73-1.65s-1.74.78-1.74,1.74.78,1.74,1.74,1.74c.79,0,1.45-.53,1.66-1.25h10.54c-.02.12-.04.25-.04.38,0,.68.26,1.29.69,1.75l-5.2,7.96c-.22-.1-.45-.15-.7-.15-.96,0-1.74.78-1.74,1.74s.78,1.74,1.74,1.74,1.74-.78,1.74-1.74c0-.5-.21-.95-.55-1.26l5.15-7.89c.42.29.93.46,1.48.46s1.1-.19,1.54-.51l4.33,6.32c-.92.63-1.53,1.68-1.53,2.88,0,1.92,1.56,3.48,3.48,3.48s3.48-1.56,3.48-3.48-1.56-3.48-3.48-3.48c-.51,0-1,.12-1.44.32l-4.42-6.44c.39-.46.64-1.04.64-1.7,0-.94-.5-1.75-1.24-2.21l5.01-7.67c.44.2.93.32,1.45.32.87,0,1.65-.33,2.26-.85l4.7,6.95c-1.05.79-1.75,2.04-1.75,3.46,0,2.4,1.94,4.34,4.34,4.34s4.34-1.94,4.34-4.34c0-1.55-.82-2.9-2.04-3.67l2.84-4.89c.78.47,1.69.74,2.67.74,1.9,0,3.55-1.01,4.46-2.53.66-1.11,1.92-1.72,3.21-1.72h10.85c0,11.37-.13,15.18-.55,19.27,1.38-.17,2.05-.22,3.15-.22.55,0,1.66.05,3.15.11,1.27.06,2.38.11,3.21.11,4.59,0,7.85-.77,10.56-2.54,2.82-1.83,4.59-5.09,4.59-8.52,0-5.14-3.37-8.07-10.34-9.12ZM189,269.68c-1.32.67-2.34,1.91-2.69,3.37-.06.25-.1.5-.12.75h-8.77c-.12-.82-.53-1.54-1.12-2.06l4.6-7.03c.74.58,1.65.93,2.66.93.86,0,1.65-.26,2.33-.69l3.12,4.73ZM168.05,263.81c.42-.44.68-1.02.72-1.66h10.53c.17.84.58,1.59,1.15,2.18l-4.61,7.06c-.53-.33-1.16-.54-1.84-.54-.37,0-.72.07-1.05.18l-4.89-7.22ZM185.35,283.42c-.55-.25-1.15-.4-1.8-.4-.77,0-1.48.22-2.11.57l-4.78-7.06c.48-.59.79-1.33.8-2.15h8.7c.02,1.67.82,3.15,2.06,4.09l-2.87,4.94ZM214.21,273.05l.06-2.99c0-5.75,0-6.14.17-10.56,1.77-.22,2.65-.28,4.04-.28,6.3,0,9.29,2.27,9.29,6.97,0,5.2-3.82,7.69-11.78,7.69-.55,0-1,0-1.77-.06v-.77ZM225.71,290.64c-1.71,1.33-4.04,1.94-7.24,1.94-1.22,0-2.27-.06-3.98-.33-.11-1.55-.22-6.58-.22-8.29v-7.35l.06-.77c1.88-.05,2.65-.11,3.59-.11,3.26,0,5.42.33,7.19,1.16,2.38,1.05,3.82,3.59,3.82,6.75,0,2.87-1.22,5.53-3.21,7.02Z"/>
      </g>
    </g>
  </g>
</svg>